<svg width="19" height="19" viewBox="0 0 19 19" fill="none" xmlns="http://www.w3.org/2000/svg">
<g id="placeholder-for-map" clip-path="url(#clip0_4912_69)">
<g id="Group">
<path id="Vector" d="M9.7397 0.0039601C5.88119 -0.126074 2.71251 2.96303 2.71251 6.79217C2.71251 11.1378 6.88284 14.2916 9.22031 18.8271C9.33898 19.0574 9.67049 19.0577 9.78957 18.8275C11.9041 14.7464 15.5182 12.0098 16.188 8.07816C16.8815 4.00967 13.8645 0.14302 9.7397 0.0039601ZM9.50461 10.3499C7.53974 10.3499 5.94686 8.757 5.94686 6.79217C5.94686 4.82735 7.53978 3.23442 9.50461 3.23442C11.4695 3.23442 13.0624 4.82735 13.0624 6.79217C13.0624 8.757 11.4695 10.3499 9.50461 10.3499Z" fill="#FAFAFA"/>
</g>
</g>
<defs>
<clipPath id="clip0_4912_69">
<rect width="19" height="19" fill="white"/>
</clipPath>
</defs>
</svg>
